<svg width="32" height="32" viewBox="0 0 32 32" fill="none" xmlns="http://www.w3.org/2000/svg">
  <!-- Advanced Gradients -->
  <defs>
    <linearGradient id="faviconGradient" x1="0%" y1="0%" x2="100%" y2="100%">
      <stop offset="0%" style="stop-color:#f59e0b;stop-opacity:1" />
      <stop offset="50%" style="stop-color:#ea580c;stop-opacity:1" />
      <stop offset="100%" style="stop-color:#dc2626;stop-opacity:1" />
    </linearGradient>
    
    <linearGradient id="faviconBuildingGradient" x1="0%" y1="0%" x2="100%" y2="100%">
      <stop offset="0%" style="stop-color:#ffffff;stop-opacity:1" />
      <stop offset="50%" style="stop-color:#fef3c7;stop-opacity:1" />
      <stop offset="100%" style="stop-color:#fde68a;stop-opacity:1" />
    </linearGradient>
    
    <linearGradient id="faviconWindowGradient" x1="0%" y1="0%" x2="100%" y2="100%">
      <stop offset="0%" style="stop-color:#60a5fa;stop-opacity:1" />
      <stop offset="100%" style="stop-color:#3b82f6;stop-opacity:1" />
    </linearGradient>
    
    <linearGradient id="faviconDoorGradient" x1="0%" y1="0%" x2="100%" y2="100%">
      <stop offset="0%" style="stop-color:#fbbf24;stop-opacity:1" />
      <stop offset="100%" style="stop-color:#f59e0b;stop-opacity:1" />
    </linearGradient>
    
    <!-- Glow Effects -->
    <filter id="faviconGlow">
      <feGaussianBlur stdDeviation="1" result="coloredBlur"/>
      <feMerge> 
        <feMergeNode in="coloredBlur"/>
        <feMergeNode in="SourceGraphic"/>
      </feMerge>
    </filter>
  </defs>
  
  <!-- Background circle with enhanced gradient -->
  <circle cx="16" cy="16" r="16" fill="url(#faviconGradient)"/>
  
  <!-- Inner glow ring -->
  <circle cx="16" cy="16" r="14" fill="none" stroke="rgba(255,255,255,0.3)" stroke-width="0.5"/>
  
  <!-- Main Building Structure -->
  <path d="M8 24V14L16 8L24 14V24H8Z" fill="url(#faviconBuildingGradient)" stroke="#ffffff" stroke-width="1" filter="url(#faviconGlow)"/>
  
  <!-- Enhanced Windows with gradients -->
  <rect x="11" y="15" width="2.5" height="2.5" fill="url(#faviconWindowGradient)" rx="0.5"/>
  <rect x="18.5" y="15" width="2.5" height="2.5" fill="url(#faviconWindowGradient)" rx="0.5"/>
  <rect x="11" y="19" width="2.5" height="2.5" fill="url(#faviconWindowGradient)" rx="0.5"/>
  <rect x="18.5" y="19" width="2.5" height="2.5" fill="url(#faviconWindowGradient)" rx="0.5"/>
  
  <!-- Enhanced Door with gradient -->
  <rect x="14.75" y="21.5" width="2.5" height="2.5" fill="url(#faviconDoorGradient)" rx="0.5"/>
  
  <!-- Enhanced Roof Detail -->
  <path d="M16 8L13.5 9.5V10.5L16 9.5L18.5 10.5V9.5L16 8Z" fill="#ffffff" filter="url(#faviconGlow)"/>
  
  <!-- Floating Elements for extra detail -->
  <circle cx="16" cy="6" r="0.5" fill="#ffffff" opacity="0.8"/>
  <circle cx="13" cy="7" r="0.3" fill="#ffffff" opacity="0.6"/>
  <circle cx="19" cy="7" r="0.3" fill="#ffffff" opacity="0.6"/>
</svg> 